<?xml version="1.0" standalone="no"?>
<!DOCTYPE svg PUBLIC "-//W3C//DTD SVG 20010904//EN"
 "http://www.w3.org/TR/2001/REC-SVG-20010904/DTD/svg10.dtd">
<svg version="1.0" xmlns="http://www.w3.org/2000/svg"
 width="500.000000pt" height="500.000000pt" viewBox="0 0 500.000000 500.000000"
 preserveAspectRatio="xMidYMid meet">
<metadata>
Created by potrace 1.14, written by Peter Selinger 2001-2017
</metadata>
<g transform="translate(0.000000,500.000000) scale(0.100000,-0.100000)"
fill="#000000" stroke="none">
<path d="M1647 4493 c-17 -17 -3 -48 48 -102 56 -62 97 -133 110 -189 5 -24 1
-40 -14 -65 -11 -18 -38 -69 -60 -114 -26 -52 -53 -91 -75 -108 -19 -14 -39
-39 -45 -56 -8 -23 -16 -29 -39 -29 -15 0 -53 -7 -83 -16 -134 -39 -251 -140
-316 -270 l-38 -78 -3 -295 c-2 -163 -1 -310 3 -328 3 -18 21 -55 40 -84 l35
-51 0 -194 c0 -155 3 -194 13 -194 8 0 108 54 223 120 l209 120 191 0 192 0 4
-103 c3 -91 7 -110 35 -168 58 -117 174 -209 308 -244 47 -12 124 -15 378 -15
l319 0 92 -52 c50 -28 143 -82 206 -118 147 -86 156 -91 164 -83 3 3 6 95 6
203 0 183 1 199 20 223 11 14 29 45 40 69 18 39 20 66 20 319 0 248 -2 284
-20 341 -41 134 -146 253 -278 316 l-77 37 -252 3 -253 4 0 62 c0 130 -54 249
-157 347 -64 61 -118 93 -203 119 l-55 17 38 8 c155 31 342 -83 427 -259 21
-45 44 -107 51 -138 l12 -58 172 0 c250 0 343 -27 484 -141 l61 -50 0 293 0
293 -44 42 c-47 44 -51 56 -61 169 -7 76 -14 90 -84 175 -67 83 -91 141 -91
226 0 52 -4 76 -16 87 -14 14 -102 16 -823 16 -444 0 -811 -3 -814 -7z m1555
-1272 c149 -25 281 -137 337 -285 16 -44 20 -88 24 -306 5 -285 0 -334 -44
-381 l-29 -31 0 -169 c0 -99 -4 -169 -9 -169 -6 0 -90 48 -188 108 l-178 107
-360 5 -360 5 -67 32 c-80 38 -154 108 -188 178 -19 40 -25 70 -28 148 l-4 97
99 0 c183 0 290 37 394 137 115 110 149 199 149 392 0 70 3 131 7 134 10 10
380 8 445 -2z"/>
<path d="M1630 2422 c-43 -25 -67 -46 -71 -62 -12 -44 -9 -95 7 -118 13 -19
24 -22 85 -22 67 0 70 -1 79 -27 11 -30 17 -41 64 -117 27 -42 31 -59 31 -115
-1 -76 -21 -129 -90 -231 -52 -78 -58 -97 -42 -130 9 -18 26 -28 57 -36 42
-10 45 -13 51 -49 7 -40 46 -85 75 -85 21 0 17 -19 -11 -56 -32 -42 -34 -105
-5 -132 22 -20 159 -64 249 -80 57 -10 71 -23 116 -101 11 -20 47 -54 80 -77
34 -23 61 -49 63 -60 2 -11 -11 -49 -29 -85 -62 -124 -48 -186 38 -176 l44 5
26 -52 c59 -119 107 -127 157 -28 21 41 79 79 134 88 39 6 53 2 135 -40 51
-25 106 -49 122 -51 56 -10 60 0 60 157 0 90 5 151 12 164 7 11 31 26 55 33
50 15 98 56 98 84 0 11 -13 42 -30 69 -36 59 -37 68 -5 98 17 16 25 34 25 57
l0 33 53 0 c64 0 96 24 78 59 -15 27 -14 31 9 31 12 0 25 11 32 26 11 24 9 29
-15 50 l-28 24 27 0 c34 0 102 66 110 109 5 23 12 31 28 31 12 0 27 5 34 12
27 27 12 44 -63 77 -41 18 -154 80 -251 137 l-176 104 -307 0 c-174 0 -333 5
-367 11 -138 25 -301 136 -367 250 -36 62 -67 161 -67 214 l0 45 -122 -1 -123
0 -65 -37z"/>
</g>
</svg>
